# xmcd
#
# Track frame offsets: 
#        150
#        8835
#        27035
#        47850
#        68997
#        74517
#        93140
#        111267
#        131832
#        155330
#        175237
#        196080
#        202730
#        221717
#        242960
#        264752
#        286495
#        310820
#
# Disc length: 4433 seconds
#
# Revision: 11
# Processed by: cddbd v1.5.2PL0 Copyright (c) Steve Scherf et al.
# Submitted via: ExactAudioCopyFreeDBPlugin 1.0
#
DISCID=fe114f12
DTITLE=Big Tymers - I Got That Work
DYEAR=2000
DGENRE=Rap
TTITLE0=Big Tymers Intro (ft Lovely and Antrice)
TTITLE1=Get Your Roll On
TTITLE2=Nigga Couldn't Know (ft Lil Wayne)
TTITLE3=#1 Stunna (ft Juvenile and Lil Wayne)
TTITLE4=Big Chief (Skit) (ft Ziggy)
TTITLE5=No, No (ft Lil Wayne)
TTITLE6=We Ain't Stoppin' (ft Hot Boys)
TTITLE7=My Life (ft Hot Boys)
TTITLE8=Sunday Night (ft Lil Wayne)
TTITLE9=10 Wayz
TTITLE10=Hard Life (ft Juvenile and Lil Wayne)
TTITLE11=Big Chief (Skit) (ft Ziggy)
TTITLE12=We Hustle (ft B.G., Juvenile and Turk)
TTITLE13=Pimp On (ft Unplugged)
TTITLE14=Stuntastic (ft B.G. and Lil Wayne)
TTITLE15=Rocky
TTITLE16=Big Tymers (ft Lac)
TTITLE17=Snake
EXTD=RapMusicGuide.com
EXTT0=
EXTT1=
EXTT2=
EXTT3=
EXTT4=
EXTT5=
EXTT6=
EXTT7=
EXTT8=
EXTT9=
EXTT10=
EXTT11=
EXTT12=
EXTT13=
EXTT14=
EXTT15=
EXTT16=
EXTT17=
PLAYORDER=
